<?xml version="1.0" encoding="UTF-8" standalone="no"?>
<!-- Created with Inkscape (http://www.inkscape.org/) -->

<svg
   xmlns:dc="http://purl.org/dc/elements/1.1/"
   xmlns:cc="http://creativecommons.org/ns#"
   xmlns:rdf="http://www.w3.org/1999/02/22-rdf-syntax-ns#"
   xmlns:svg="http://www.w3.org/2000/svg"
   xmlns="http://www.w3.org/2000/svg"
   xmlns:sodipodi="http://sodipodi.sourceforge.net/DTD/sodipodi-0.dtd"
   xmlns:inkscape="http://www.inkscape.org/namespaces/inkscape"
   width="210mm"
   height="297mm"
   viewBox="0 0 210 297"
   version="1.1"
   id="svg8"
   inkscape:version="0.92.1 r15371"
   sodipodi:docname="part_icons.svg">
  <defs
     id="defs2" />
  <sodipodi:namedview
     id="base"
     pagecolor="#ffffff"
     bordercolor="#666666"
     borderopacity="1.0"
     inkscape:pageopacity="0.0"
     inkscape:pageshadow="2"
     inkscape:zoom="0.72305135"
     inkscape:cx="1382.3204"
     inkscape:cy="980.71801"
     inkscape:document-units="mm"
     inkscape:current-layer="layer1"
     showgrid="false"
     inkscape:window-width="1918"
     inkscape:window-height="1058"
     inkscape:window-x="0"
     inkscape:window-y="20"
     inkscape:window-maximized="1" />
  <metadata
     id="metadata5">
    <rdf:RDF>
      <cc:Work
         rdf:about="">
        <dc:format>image/svg+xml</dc:format>
        <dc:type
           rdf:resource="http://purl.org/dc/dcmitype/StillImage" />
        <dc:title></dc:title>
      </cc:Work>
    </rdf:RDF>
  </metadata>
  <g
     inkscape:label="Layer 1"
     inkscape:groupmode="layer"
     id="layer1">
    <rect
       inkscape:transform-center-y="8.721883"
       inkscape:transform-center-x="15.368425"
       y="-16.623899"
       x="-80.867149"
       height="35.435268"
       width="2.2896631"
       id="rect4508"
       style="opacity:1;fill:#000000;fill-opacity:1;stroke:none;stroke-width:1.55405915;stroke-linecap:round;stroke-linejoin:round;stroke-miterlimit:4;stroke-dasharray:none;stroke-dashoffset:0;stroke-opacity:1"
       transform="rotate(-120)" />
    <rect
       transform="rotate(-120)"
       style="opacity:1;fill:#000000;fill-opacity:1;stroke:none;stroke-width:1.55405915;stroke-linecap:round;stroke-linejoin:round;stroke-miterlimit:4;stroke-dasharray:none;stroke-dashoffset:0;stroke-opacity:1"
       id="rect4510"
       width="2.2896631"
       height="35.435268"
       x="-80.867149"
       y="-16.623899"
       inkscape:transform-center-x="15.368425"
       inkscape:transform-center-y="8.721883" />
    <rect
       inkscape:transform-center-y="8.9485003"
       inkscape:transform-center-x="-15.237582"
       y="-113.92494"
       x="22.662378"
       height="35.435268"
       width="2.2896631"
       id="rect4512"
       style="opacity:1;fill:#000000;fill-opacity:1;stroke:none;stroke-width:1.55405915;stroke-linecap:round;stroke-linejoin:round;stroke-miterlimit:4;stroke-dasharray:none;stroke-dashoffset:0;stroke-opacity:1"
       transform="rotate(120)" />
    <rect
       style="opacity:1;fill:#000000;fill-opacity:1;stroke:none;stroke-width:1.55405915;stroke-linecap:round;stroke-linejoin:round;stroke-miterlimit:4;stroke-dasharray:none;stroke-dashoffset:0;stroke-opacity:1"
       id="rect4502"
       width="2.2896631"
       height="35.435268"
       x="55.162792"
       y="24.384781"
       inkscape:transform-center-x="-0.13083825"
       inkscape:transform-center-y="-17.670387" />
    <path
       style="opacity:1;fill:#ffa263;fill-opacity:1;stroke:#aa4f00;stroke-width:8.13354301;stroke-linecap:round;stroke-linejoin:round;stroke-miterlimit:4;stroke-dasharray:none;stroke-dashoffset:0;stroke-opacity:1"
       d="M 212.85742 83.234375 A 142.14286 142.14286 0 0 0 70.714844 225.37695 A 142.14286 142.14286 0 0 0 212.85742 367.51953 A 142.14286 142.14286 0 0 0 355 225.37695 A 142.14286 142.14286 0 0 0 212.85742 83.234375 z M 212.85742 122.16211 A 103.21429 103.21429 0 0 1 316.07227 225.37695 A 103.21429 103.21429 0 0 1 212.85742 328.5918 A 103.21429 103.21429 0 0 1 109.64258 225.37695 A 103.21429 103.21429 0 0 1 212.85742 122.16211 z "
       id="path4491"
       transform="scale(0.26458333)" />
    <circle
       style="opacity:1;fill:#666666;fill-opacity:1;stroke:none;stroke-width:2.15199995;stroke-linecap:round;stroke-linejoin:round;stroke-miterlimit:4;stroke-dasharray:none;stroke-dashoffset:0;stroke-opacity:1"
       id="path4498"
       cx="56.318527"
       cy="59.630985"
       r="7.9375" />
    <circle
       r="6.283854"
       cy="59.630985"
       cx="56.318527"
       id="circle4514"
       style="opacity:1;fill:#b3b3b3;fill-opacity:1;stroke:none;stroke-width:1.70366657;stroke-linecap:round;stroke-linejoin:round;stroke-miterlimit:4;stroke-dasharray:none;stroke-dashoffset:0;stroke-opacity:1" />
    <path
       style="opacity:1;fill:#808080;fill-opacity:1;stroke:none;stroke-width:1.55405915;stroke-linecap:round;stroke-linejoin:round;stroke-miterlimit:4;stroke-dasharray:none;stroke-dashoffset:0;stroke-opacity:1"
       d="M 171.77036,-3.2972457 A 37.608631,37.608631 0 0 0 134.16181,34.31131 37.608631,37.608631 0 0 0 171.77036,71.919867 37.608631,37.608631 0 0 0 209.37892,34.31131 37.608631,37.608631 0 0 0 171.77036,-3.2972457 Z M 170.61488,7.0432077 V 26.466311 a 7.9374999,7.9374999 0 0 0 -6.78202,7.844999 7.9374999,7.9374999 0 0 0 0.53434,2.861326 l -16.82637,9.71465 A 27.308781,27.308781 0 0 1 144.46144,34.31131 27.308781,27.308781 0 0 1 170.61488,7.0432077 Z m 2.28926,0.01602 a 27.308781,27.308781 0 0 1 26.17515,27.2520823 27.308781,27.308781 0 0 1 -3.26595,12.933579 l -16.80052,-9.699667 a 7.9374999,7.9374999 0 0 0 0.69504,-3.233912 7.9374999,7.9374999 0 0 0 -6.80372,-7.846031 z M 165.4953,39.165279 a 7.9374999,7.9374999 0 0 0 6.27506,3.083531 7.9374999,7.9374999 0 0 0 6.01721,-2.766756 l 16.84341,9.724472 A 27.308781,27.308781 0 0 1 171.77036,61.620239 27.308781,27.308781 0 0 1 148.6803,48.87373 Z"
       id="rect4558"
       inkscape:connector-curvature="0" />
    <path
       style="opacity:1;fill:#808080;fill-opacity:1;stroke:none;stroke-width:2.24736953;stroke-linecap:round;stroke-linejoin:round;stroke-miterlimit:4;stroke-dasharray:none;stroke-dashoffset:0;stroke-opacity:1"
       d="M 249.86822,-0.63452961 A 36.563941,36.563941 0 0 0 213.30436,35.928872 36.563941,36.563941 0 0 0 249.86822,72.492724 36.563941,36.563941 0 0 0 286.43207,35.928872 36.563941,36.563941 0 0 0 249.86822,-0.63452961 Z m 1.5346,19.75393561 a 16.8864,16.8864 0 0 1 2.76795,0.502077 l -2.76795,7.60546 z m -3.06921,0.0072 v 8.100331 l -2.772,-7.616266 a 16.8864,16.8864 0 0 1 2.772,-0.484065 z m -5.65253,1.541805 2.7693,7.608612 -5.20359,-6.201446 a 16.8864,16.8864 0 0 1 2.43429,-1.407166 z m 14.37338,0.0023 a 16.8864,16.8864 0 0 1 2.44374,1.394111 l -5.2117,6.211351 z m 4.79292,3.369098 a 16.8864,16.8864 0 0 1 1.79892,2.16276 l -7.00927,4.046792 z m -23.95562,0.0031 5.20764,6.206398 -7.01873,-4.052194 a 16.8864,16.8864 0 0 1 1.81109,-2.154204 z m -3.33849,4.815891 7.01153,4.04814 -7.97245,-1.405816 a 16.8864,16.8864 0 0 1 0.96092,-2.642324 z m 30.62809,8.71e-4 a 16.8864,16.8864 0 0 1 0.97713,2.638724 l -7.98686,1.408518 z m 1.50488,5.661997 a 16.8864,16.8864 0 0 1 0.068,1.407169 16.8864,16.8864 0 0 1 -0.0702,1.407161 l -7.97876,-1.407161 z m -33.63425,4.45e-4 7.97921,1.406724 -7.98145,1.407614 a 16.8864,16.8864 0 0 1 -0.068,-1.407614 16.8864,16.8864 0 0 1 0.0702,-1.406724 z m 25.11919,4.429094 7.9729,1.405819 a 16.8864,16.8864 0 0 1 -0.96137,2.642321 z m -16.60683,4.45e-4 -7.00972,4.046798 a 16.8864,16.8864 0 0 1 -0.97714,-2.638723 z m 1.53505,2.657186 -5.2108,6.210005 a 16.8864,16.8864 0 0 1 -1.79893,-2.162762 z m 13.53763,0 7.01828,4.052192 a 16.8864,16.8864 0 0 1 -1.81063,2.154205 z m -11.1871,1.973187 -2.7684,7.605462 a 16.8864,16.8864 0 0 1 -2.44374,-1.393654 z m 8.83657,0 5.20314,6.200549 a 16.8864,16.8864 0 0 1 -2.43429,1.407161 z m -2.88368,1.047833 2.77246,7.617618 a 16.8864,16.8864 0 0 1 -2.77246,0.484073 z m -3.06921,0.0017 v 8.107093 a 16.8864,16.8864 0 0 1 -2.76795,-0.501631 z"
       id="path4573"
       inkscape:connector-curvature="0" />
    <rect
       style="opacity:1;fill:#ff0000;fill-opacity:1;stroke:none;stroke-width:2.06356692;stroke-linecap:round;stroke-linejoin:round;stroke-miterlimit:4;stroke-dasharray:none;stroke-dashoffset:0;stroke-opacity:1"
       id="rect4598"
       width="20.599703"
       height="35.494724"
       x="67.090775"
       y="157.90474"
       ry="3.520138" />
    <path
       style="fill:none;stroke:#000000;stroke-width:4.86499977;stroke-linecap:butt;stroke-linejoin:miter;stroke-miterlimit:4;stroke-dasharray:none;stroke-opacity:1"
       d="M 62.273798,126.5492 V 138.25 c 0.373862,9.84547 14.65786,8.68843 15.121911,16.84008 v 43.75075"
       id="path4600"
       inkscape:connector-curvature="0"
       sodipodi:nodetypes="cccc" />
    <path
       style="opacity:1;fill:#808080;fill-opacity:1;stroke:none;stroke-width:2.677701;stroke-linecap:round;stroke-linejoin:round;stroke-miterlimit:4;stroke-dasharray:none;stroke-dashoffset:0;stroke-opacity:1"
       d="M 294.31299,-5.6409607 V 9.6034927 l 0.003,0.05834 c 0.15029,3.9578193 1.86032,7.1753693 4.10315,9.4253563 2.24282,2.249987 4.90423,3.694879 7.33187,4.989618 2.42766,1.294728 4.64024,2.453791 6.05246,3.647163 1.4063,1.188377 2.02894,2.12322 2.13103,3.832236 v 3.490252 h -5.64744 c -2.53053,0 -4.56784,2.037301 -4.56784,4.567831 v 36.922915 c 0,2.530538 2.03731,4.56784 4.56784,4.56784 h 5.64744 v 7.06163 h 6.31329 v -7.06163 h 5.63403 c 2.53054,0 4.56784,-2.037295 4.56784,-4.56784 V 39.614289 c 0,-2.53053 -2.0373,-4.56783 -4.56784,-4.56783 h -5.63403 v -3.741041 l -0.005,-0.0912 c -0.203,-3.566008 -2.11907,-6.410912 -4.36667,-8.31022 -2.24761,-1.89931 -4.81282,-3.148451 -7.15484,-4.397518 -2.34201,-1.249062 -4.44341,-2.482975 -5.83117,-3.875149 -1.38483,-1.389245 -2.16812,-2.775044 -2.26313,-5.1954813 V -5.6409607 Z"
       id="rect4602"
       inkscape:connector-curvature="0" />
    <rect
       style="opacity:1;fill:#808080;fill-opacity:1;stroke:none;stroke-width:4.86499977;stroke-linecap:round;stroke-linejoin:round;stroke-miterlimit:4;stroke-dasharray:none;stroke-dashoffset:0;stroke-opacity:1"
       id="rect4609"
       width="35.624252"
       height="23.529015"
       x="147.41072"
       y="180.9613"
       ry="4.5357256" />
    <rect
       style="opacity:1;fill:#808080;fill-opacity:1;stroke:none;stroke-width:4.86499977;stroke-linecap:round;stroke-linejoin:round;stroke-miterlimit:4;stroke-dasharray:none;stroke-dashoffset:0;stroke-opacity:1"
       id="rect4611"
       width="23.718006"
       height="29.576635"
       x="19.056042"
       y="217.92816"
       ry="4.5357256"
       transform="rotate(-33.237229)" />
    <rect
       transform="matrix(-0.83640835,-0.54810681,-0.54810681,0.83640835,0,0)"
       ry="4.5357256"
       y="37.53373"
       x="-256.22498"
       height="29.576635"
       width="23.718006"
       id="rect4613"
       style="opacity:1;fill:#808080;fill-opacity:1;stroke:none;stroke-width:4.86499977;stroke-linecap:round;stroke-linejoin:round;stroke-miterlimit:4;stroke-dasharray:none;stroke-dashoffset:0;stroke-opacity:1" />
    <rect
       style="opacity:1;fill:#808080;fill-opacity:1;stroke:none;stroke-width:4.86499977;stroke-linecap:round;stroke-linejoin:round;stroke-miterlimit:4;stroke-dasharray:none;stroke-dashoffset:0;stroke-opacity:1"
       id="rect4617"
       width="12.495978"
       height="25.977386"
       x="-251.06728"
       y="33.564098"
       ry="1.0781475"
       transform="matrix(-0.83640835,-0.54810681,-0.54810681,0.83640835,0,0)" />
    <rect
       style="opacity:1;fill:#808080;fill-opacity:1;stroke:none;stroke-width:4.86499977;stroke-linecap:round;stroke-linejoin:round;stroke-miterlimit:4;stroke-dasharray:none;stroke-dashoffset:0;stroke-opacity:1"
       id="rect4619"
       width="14.363094"
       height="3.5907736"
       x="116.41666"
       y="173.49628"
       ry="1.1449729" />
    <rect
       ry="1.1449729"
       y="177.77258"
       x="116.41666"
       height="3.5907736"
       width="14.363094"
       id="rect4621"
       style="opacity:1;fill:#808080;fill-opacity:1;stroke:none;stroke-width:4.86499977;stroke-linecap:round;stroke-linejoin:round;stroke-miterlimit:4;stroke-dasharray:none;stroke-dashoffset:0;stroke-opacity:1" />
    <rect
       style="opacity:1;fill:#808080;fill-opacity:1;stroke:none;stroke-width:4.86499977;stroke-linecap:round;stroke-linejoin:round;stroke-miterlimit:4;stroke-dasharray:none;stroke-dashoffset:0;stroke-opacity:1"
       id="rect4623"
       width="14.363094"
       height="3.5907736"
       x="116.41666"
       y="182.06088"
       ry="1.1449729" />
    <rect
       ry="1.1449729"
       y="186.37061"
       x="116.41666"
       height="3.5907736"
       width="14.363094"
       id="rect4625"
       style="opacity:1;fill:#808080;fill-opacity:1;stroke:none;stroke-width:4.86499977;stroke-linecap:round;stroke-linejoin:round;stroke-miterlimit:4;stroke-dasharray:none;stroke-dashoffset:0;stroke-opacity:1" />
    <g
       id="g4719"
       transform="matrix(2.5340011,0,0,2.5340011,-10.97553,-539.69766)">
      <rect
         transform="rotate(-30.993204)"
         style="opacity:1;fill:#808080;fill-opacity:1;stroke:none;stroke-width:4.86499977;stroke-linecap:round;stroke-linejoin:round;stroke-miterlimit:4;stroke-dasharray:none;stroke-dashoffset:0;stroke-opacity:1"
         id="rect4635"
         width="14.363094"
         height="3.5907736"
         x="2.7914181"
         y="261.20416"
         ry="1.1449729" />
      <rect
         transform="rotate(-30.993204)"
         ry="1.1449729"
         y="265.48047"
         x="2.7914181"
         height="3.5907736"
         width="14.363094"
         id="rect4637"
         style="opacity:1;fill:#808080;fill-opacity:1;stroke:none;stroke-width:4.86499977;stroke-linecap:round;stroke-linejoin:round;stroke-miterlimit:4;stroke-dasharray:none;stroke-dashoffset:0;stroke-opacity:1" />
      <path
         id="rect4639"
         transform="scale(0.26458333)"
         d="m 580.38672,842.25195 c -1.21913,-0.0158 -2.41869,0.17416 -3.48828,0.61914 l -39.11719,23.4961 c -2.07302,2.65948 -2.01188,6.00234 -2.03516,9.27343 v 29.66016 c 0,5.15501 4.14968,9.30469 9.30469,9.30469 h 70.57617 c 5.15501,0 9.30469,-4.14968 9.30469,-9.30469 v -29.66016 c -0.11408,-3.2844 0.80721,-7.58502 -1.82031,-9.27343 l -39.11719,-23.4961 c -1.14958,-0.38164 -2.38829,-0.6033 -3.60742,-0.61914 z M 567.2207,866.0293 c 2.72212,0.22519 0.0176,4.0089 3.45118,4.72656 3.66247,0.7655 2.32656,-4.46164 5.625,-2.69531 3.29839,1.7664 -1.79417,3.55173 0.87304,6.17578 2.66718,2.62405 4.36965,-2.49578 6.18946,0.77344 1.81984,3.26921 -3.42859,2.0165 -2.60352,5.66601 0.82507,3.64963 5.02371,0.262 4.78711,3.9961 -0.23652,3.73413 -3.97495,-0.15691 -5.25391,3.35937 -1.27888,3.51617 4.08498,2.93573 1.86719,5.94922 -2.21775,3.01565 -3.25747,-2.27631 -6.23437,-0.01 -2.97699,2.26659 1.8484,4.67761 -1.64649,6.01368 -3.49485,1.3361 -1.50853,-3.68027 -5.23828,-3.38282 -3.72975,0.29734 -0.97424,4.93551 -4.63672,4.16992 -3.66247,-0.76546 0.72031,-3.91141 -2.57812,-5.67773 -3.2984,-1.76629 -3.48912,3.62604 -6.15625,1.00195 -2.66722,-2.62405 2.72218,-2.90273 0.90234,-6.17187 -1.81988,-3.26941 -4.89567,1.16506 -5.7207,-2.48438 -0.82511,-3.64966 3.85715,-0.96906 4.09375,-4.70312 0.23648,-3.73414 -4.74579,-1.66735 -3.4668,-5.1836 1.27895,-3.51617 3.77045,1.26932 5.98828,-1.74414 2.21768,-3.01345 -3.09409,-3.96783 -0.11719,-6.23437 2.97699,-2.26662 2.4855,3.10563 5.98047,1.76953 3.49486,-1.33599 -0.45635,-5.00919 3.27344,-5.30664 v -0.002 c 0.23312,-0.0186 0.43962,-0.0209 0.62109,-0.006 z m 1.06055,8.41406 a 9.0131758,9.0131758 0 0 0 -1.79883,0.0918 9.0131758,9.0131758 0 0 0 -7.55469,10.26562 9.0131758,9.0131758 0 0 0 10.26563,7.55664 9.0131758,9.0131758 0 0 0 7.55664,-10.26562 9.0131758,9.0131758 0 0 0 -8.46875,-7.64844 z m 31.17969,2.66211 c 0.12967,7.8e-4 0.27526,0.0151 0.43945,0.043 2.62692,0.44602 -0.40853,2.80268 1.98633,3.9707 2.3949,1.16803 2.38476,-2.67429 4.35351,-0.87891 1.96887,1.79543 -1.85779,2.13863 -0.47461,4.41602 1.38324,2.27728 3.45116,-0.96156 4.13672,1.61328 0.68557,2.5748 -2.71945,0.79533 -2.78711,3.45899 -0.0676,2.66366 3.42256,1.05704 2.60743,3.59375 -0.81529,2.53659 -2.71586,-0.80196 -4.21289,1.40234 -1.49704,2.20422 2.30727,2.74033 0.25,4.43359 -2.05743,1.6935 -1.85175,-2.14262 -4.30274,-1.09765 -2.4514,1.045 0.45862,3.55304 -2.1875,3.86523 -2.64612,0.31219 -0.39839,-2.8042 -3.02539,-3.25 -2.62688,-0.44606 -1.53291,3.23639 -3.92773,2.06836 -2.39486,-1.16802 1.17973,-2.57371 -0.78907,-4.36914 -1.96875,-1.79543 -3.04063,1.89259 -4.42382,-0.38477 -1.38324,-2.27735 2.38478,-1.52679 1.69921,-4.10156 -0.68556,-2.57495 -3.5829,-0.0513 -3.51562,-2.71484 0.0677,-2.66415 2.83331,0.005 3.64844,-2.53125 0.81528,-2.53671 -2.98528,-1.98129 -1.48828,-4.18555 1.49692,-2.20414 2.38011,1.53506 4.4375,-0.1582 2.05742,-1.69319 -1.44318,-3.27922 1.00781,-4.32422 2.45106,-1.045 1.17411,2.57781 3.82031,2.26562 2.48056,-0.29264 0.80295,-3.14649 2.74805,-3.13476 z m -1.58008,5.86133 a 6.4185516,6.4185516 0 0 0 -6.55469,5.79687 6.4185516,6.4185516 0 0 0 5.76953,7.00977 6.4185516,6.4185516 0 0 0 7.00782,-5.76953 6.4185516,6.4185516 0 0 0 -5.76758,-7.00782 6.4185516,6.4185516 0 0 0 -0.45508,-0.0293 z"
         style="opacity:1;fill:#808080;fill-opacity:1;stroke:none;stroke-width:18.38740158;stroke-linecap:round;stroke-linejoin:round;stroke-miterlimit:4;stroke-dasharray:none;stroke-dashoffset:0;stroke-opacity:1"
         inkscape:connector-curvature="0" />
      <rect
         ry="1.1449729"
         y="103.03998"
         x="-260.50873"
         height="3.5907736"
         width="14.363094"
         id="rect4643"
         style="opacity:1;fill:#808080;fill-opacity:1;stroke:none;stroke-width:4.86499977;stroke-linecap:round;stroke-linejoin:round;stroke-miterlimit:4;stroke-dasharray:none;stroke-dashoffset:0;stroke-opacity:1"
         transform="matrix(-0.85722838,-0.5149364,-0.5149364,0.85722838,0,0)" />
      <rect
         style="opacity:1;fill:#808080;fill-opacity:1;stroke:none;stroke-width:4.86499977;stroke-linecap:round;stroke-linejoin:round;stroke-miterlimit:4;stroke-dasharray:none;stroke-dashoffset:0;stroke-opacity:1"
         id="rect4645"
         width="14.363094"
         height="3.5907736"
         x="-260.50873"
         y="107.31628"
         ry="1.1449729"
         transform="matrix(-0.85722838,-0.5149364,-0.5149364,0.85722838,0,0)" />
    </g>
    <circle
       style="opacity:1;fill:#808080;fill-opacity:1;stroke:none;stroke-width:4.86499977;stroke-linecap:round;stroke-linejoin:round;stroke-miterlimit:4;stroke-dasharray:none;stroke-dashoffset:0;stroke-opacity:1"
       id="path4660"
       cx="150.11519"
       cy="139.37346"
       r="5.2444196" />
    <rect
       style="opacity:1;fill:#808080;fill-opacity:1;stroke:none;stroke-width:3.45789623;stroke-linecap:round;stroke-linejoin:round;stroke-miterlimit:4;stroke-dasharray:none;stroke-dashoffset:0;stroke-opacity:1"
       id="rect4675"
       width="2.2049739"
       height="14.967093"
       x="149.0127"
       y="131.88991"
       ry="0.48540503" />
    <path
       sodipodi:type="star"
       style="opacity:1;fill:#808080;fill-opacity:1;stroke:none;stroke-width:4.86499977;stroke-linecap:round;stroke-linejoin:round;stroke-miterlimit:4;stroke-dasharray:none;stroke-dashoffset:0;stroke-opacity:1"
       id="path4695"
       sodipodi:sides="11"
       sodipodi:cx="159.35947"
       sodipodi:cy="137.841"
       sodipodi:r1="4.1217132"
       sodipodi:r2="5.7702093"
       sodipodi:arg1="0.081795034"
       sodipodi:arg2="0.40024773"
       inkscape:flatsided="false"
       inkscape:rounded="0.6"
       inkscape:randomized="0"
       d="m 163.4674,138.17776 c -0.15515,1.3473 1.69335,0.64589 1.20622,1.91159 -0.44317,1.15149 -1.25898,-0.69897 -2.04041,0.25587 -0.85892,1.04954 1.07535,1.45885 -0.0187,2.26026 -0.99537,0.7291 -0.68124,-1.26867 -1.85484,-0.88787 -1.29,0.41856 0.11592,1.80863 -1.23776,1.89132 -1.23154,0.0752 0.11281,-1.43558 -1.08037,-1.74973 -1.3115,-0.34531 -0.88029,1.58419 -2.06378,0.9219 -1.07671,-0.60254 0.87102,-1.1467 0.0371,-2.05606 -0.91662,-0.99954 -1.59704,0.85679 -2.23459,-0.34021 -0.58003,-1.089 1.35271,-0.49376 1.14281,-1.70961 -0.23072,-1.33643 -1.80673,-0.14265 -1.69592,-1.49431 0.10081,-1.22971 1.40491,0.31595 1.88567,-0.82036 0.52844,-1.24902 -1.44279,-1.0968 -0.61881,-2.17399 0.74964,-0.97999 1.01107,1.02536 2.02985,0.32934 1.11982,-0.76504 -0.62078,-1.70271 0.65477,-2.16342 1.16046,-0.41914 0.29621,1.40921 1.52956,1.37448 1.35566,-0.0382 0.39832,-1.76804 1.72046,-1.466 1.20285,0.27479 -0.51268,1.34565 0.54365,1.98323 1.1611,0.70082 1.29096,-1.27201 2.23992,-0.30312 0.86334,0.88147 -1.1588,0.85485 -0.61486,1.96232 0.59788,1.2173 1.77372,-0.37215 2.04822,0.95599 0.24972,1.2083 -1.43702,0.0927 -1.57817,1.31838 z"
       inkscape:transform-center-x="0.2240314"
       inkscape:transform-center-y="-0.35381479" />
    <path
       style="opacity:1;fill:#00ff00;fill-opacity:1;stroke:none;stroke-width:2.65402079;stroke-linecap:round;stroke-linejoin:round;stroke-miterlimit:4;stroke-dasharray:none;stroke-dashoffset:0;stroke-opacity:1"
       d="m 127.53892,226.05678 c -1.04882,-0.075 -0.10645,1.11276 -1.13385,1.33626 -1.02747,0.22352 -0.66374,-1.24845 -1.58661,-0.74451 -0.92287,0.50391 0.51234,0.99361 -0.23116,1.73713 -0.74352,0.74351 -1.23322,-0.69142 -1.73715,0.23144 -0.50393,0.92287 0.96776,0.55916 0.74425,1.58662 -0.22351,1.02745 -1.41128,0.085 -1.33627,1.13385 0.075,1.0488 1.11681,-0.0532 1.48427,0.932 0.36746,0.98519 -1.14152,0.83449 -0.51138,1.67625 0.63013,0.84176 0.91088,-0.64818 1.75264,-0.0181 0.84176,0.63014 -0.50904,1.31894 0.47616,1.68639 0.98519,0.36747 0.41572,-1.03774 1.46453,-0.96273 1.04881,0.075 0.28484,1.385 1.31229,1.16148 1.02746,-0.22351 -0.21132,-1.09762 0.71156,-1.60155 0.92287,-0.50391 0.98826,1.01077 1.73178,0.26726 0.74351,-0.74352 -0.77117,-0.80919 -0.26726,-1.73206 0.50394,-0.92288 1.37804,0.31618 1.60156,-0.71128 0.22351,-1.02745 -1.08619,-0.26377 -1.1612,-1.31258 -0.075,-1.04881 1.33018,-0.47905 0.96272,-1.46424 -0.36744,-0.9852 -1.05653,0.36532 -1.68667,-0.47643 -0.63014,-0.84176 0.86008,-1.12224 0.0183,-1.75238 -0.84176,-0.63013 -0.69134,0.87857 -1.67654,0.51111 -0.9852,-0.36745 0.11685,-1.40897 -0.93201,-1.484 z m -0.39158,2.35624 a 2.5329472,2.5329472 0 0 1 2.53299,2.53297 2.5329472,2.5329472 0 0 1 -2.53299,2.53298 2.5329472,2.5329472 0 0 1 -2.53298,-2.53298 2.5329472,2.5329472 0 0 1 2.53298,-2.53297 z"
       id="path4697"
       inkscape:connector-curvature="0" />
    <path
       style="opacity:1;fill:#808080;fill-opacity:1;stroke:#ffffff;stroke-width:1.64900005;stroke-linecap:round;stroke-linejoin:round;stroke-miterlimit:4;stroke-dasharray:none;stroke-dashoffset:0;stroke-opacity:1"
       d="m 369.95051,137.37033 c 9.79591,2.40625 12.30206,2.68334 18.49256,11.81271 0.38675,0.57036 0.53503,1.02896 0.41966,1.70836 l -1.52193,8.96228 c -0.11545,0.67939 -1.27986,0.95936 -1.70837,0.41966 -6.59472,-8.30603 -15.23935,-12.86992 -25.10561,-15.20372 -0.67064,-0.15856 -0.98824,-1.31899 -0.41966,-1.70839 L 368.2421,137.79 c 0.56858,-0.38939 1.03915,-0.58406 1.70841,-0.41967 z"
       id="rect4733"
       inkscape:connector-curvature="0"
       sodipodi:nodetypes="sssssssss" />
    <path
       sodipodi:nodetypes="sssssssss"
       inkscape:connector-curvature="0"
       id="path4736"
       d="m 377.83959,156.65859 c 6.51907,1.60134 8.60736,1.52698 12.72707,7.60249 0.25737,0.37956 0.37719,0.68886 0.27928,1.13689 l -1.6532,7.56524 c -0.0979,0.44805 -0.85174,0.63845 -1.1369,0.27928 -4.38872,-5.52758 -10.14163,-8.5648 -16.70753,-10.11792 -0.4463,-0.10552 -0.62077,-0.83081 -0.27927,-1.13692 l 5.63362,-5.04977 c 0.34151,-0.30611 0.69154,-0.38869 1.13693,-0.27929 z"
       style="opacity:1;fill:#808080;fill-opacity:1;stroke:#ffffff;stroke-width:1.0973922;stroke-linecap:round;stroke-linejoin:round;stroke-miterlimit:4;stroke-dasharray:none;stroke-dashoffset:0;stroke-opacity:1" />
    <g
       id="g4753"
       transform="translate(27.444455,45.374832)">
      <path
         inkscape:connector-curvature="0"
         id="path4723"
         d="m 285.8179,119.38025 a 24.688619,24.688619 0 0 0 -24.01559,24.65534 24.688619,24.688619 0 0 0 24.68842,24.68842 24.688619,24.688619 0 0 0 24.68893,-24.68842 24.688619,24.688619 0 0 0 -1.78284,-9.16016 l -3.44889,0.64079 c -1.13086,0.24644 -2.33355,0.28511 -3.5822,-0.80461 v 0.002 c -4.255,-3.69122 -8.11339,-7.62618 -14.48646,-9.27747 l -0.029,-0.008 -0.0274,-0.014 c -0.73465,-0.36488 -1.2618,-0.74764 -1.60767,-1.22422 -0.34583,-0.47657 -0.4927,-1.03544 -0.49969,-1.68 v -0.008 z m 0.67283,15.49156 a 9.1636915,9.1636915 0 0 1 9.16377,9.16378 9.1636915,9.1636915 0 0 1 -9.16377,9.16379 9.1636915,9.1636915 0 0 1 -9.16379,-9.16379 9.1636915,9.1636915 0 0 1 9.16379,-9.16378 z m 0,2.00505 a 7.158388,7.158388 0 0 0 -7.15822,7.15873 7.158388,7.158388 0 0 0 7.15822,7.15822 7.158388,7.158388 0 0 0 7.15873,-7.15822 7.158388,7.158388 0 0 0 -7.15873,-7.15873 z"
         style="opacity:1;fill:#808080;fill-opacity:1;stroke:none;stroke-width:2.1399858;stroke-linecap:round;stroke-linejoin:round;stroke-miterlimit:4;stroke-dasharray:none;stroke-dashoffset:0;stroke-opacity:1" />
      <path
         sodipodi:nodetypes="ccccccccccccccccccccccccc"
         inkscape:transform-center-y="-20.085092"
         inkscape:transform-center-x="-14.272009"
         inkscape:connector-curvature="0"
         id="path4738"
         d="m 291.19699,112.26446 c -0.0346,0.21803 -1.31657,7.85856 -1.35969,8.47998 -0.0512,0.52328 -0.1225,0.84098 0.39782,1.01314 5.94014,1.78057 11.88855,6.00446 14.75104,10.03283 0.31128,0.44474 0.36782,0.54256 0.79617,0.48374 3.84369,-0.52638 6.91564,-0.50963 9.37719,-2.99581 -2.7387,-6.34343 -18.29989,-17.19249 -23.96253,-17.01393 z m -4.10621,2.94168 c -0.176,0.0787 -0.19148,0.35987 -0.21475,1.07562 l -0.19181,5.90545 c 0.0139,1.20844 0.52164,1.94004 1.94364,2.6463 6.45469,1.67244 10.36288,5.65775 14.60606,9.33873 1.1805,1.03023 2.22603,0.9794 3.32762,0.73934 l 8.11345,-1.5081 c 1.38024,-0.20917 1.31213,-0.48502 0.68246,-1.29295 -0.53939,-0.708 -1.75587,-0.31699 -2.68398,0.0505 -0.97759,0.38197 -4.89407,1.13383 -5.08763,1.15841 -0.19363,0.0246 -2.38052,0.0558 -2.76595,-0.005 -3.20764,-4.12918 -10.14139,-9.12981 -16.02662,-10.69737 -0.23391,-0.21898 -0.0925,-0.81305 -0.0925,-0.81305 0,0 0.39155,-2.7449 0.70353,-4.98912 0.28575,-1.3614 0.0577,-1.27385 -1.13445,-1.46948 -0.6665,-0.0935 -1.0031,-0.21746 -1.17911,-0.13878 z"
         style="fill:#808080;fill-opacity:1;stroke:none;stroke-width:0.58600003;stroke-linecap:butt;stroke-linejoin:miter;stroke-miterlimit:4;stroke-dasharray:none;stroke-opacity:1" />
    </g>
    <g
       id="g4759"
       transform="matrix(1.3248806,0,0,1.3248806,77.076148,-149.42542)">
      <path
         style="opacity:1;fill:#808080;fill-opacity:1;stroke:none;stroke-width:2.1399858;stroke-linecap:round;stroke-linejoin:round;stroke-miterlimit:4;stroke-dasharray:none;stroke-dashoffset:0;stroke-opacity:1"
         d="m 285.8179,119.38025 a 24.688619,24.688619 0 0 0 -24.01559,24.65534 24.688619,24.688619 0 0 0 24.68842,24.68842 24.688619,24.688619 0 0 0 24.68893,-24.68842 24.688619,24.688619 0 0 0 -1.78284,-9.16016 l -3.44889,0.64079 c -1.13086,0.24644 -2.33355,0.28511 -3.5822,-0.80461 v 0.002 c -4.255,-3.69122 -8.11339,-7.62618 -14.48646,-9.27747 l -0.029,-0.008 -0.0274,-0.014 c -0.73465,-0.36488 -1.2618,-0.74764 -1.60767,-1.22422 -0.34583,-0.47657 -0.4927,-1.03544 -0.49969,-1.68 v -0.008 z m 0.67283,15.49156 a 9.1636915,9.1636915 0 0 1 9.16377,9.16378 9.1636915,9.1636915 0 0 1 -9.16377,9.16379 9.1636915,9.1636915 0 0 1 -9.16379,-9.16379 9.1636915,9.1636915 0 0 1 9.16379,-9.16378 z m 0,2.00505 a 7.158388,7.158388 0 0 0 -7.15822,7.15873 7.158388,7.158388 0 0 0 7.15822,7.15822 7.158388,7.158388 0 0 0 7.15873,-7.15822 7.158388,7.158388 0 0 0 -7.15873,-7.15873 z"
         id="path4755"
         inkscape:connector-curvature="0" />
      <path
         style="fill:#808080;fill-opacity:1;stroke:none;stroke-width:0.58600003;stroke-linecap:butt;stroke-linejoin:miter;stroke-miterlimit:4;stroke-dasharray:none;stroke-opacity:1"
         d="m 291.19699,112.26446 c -0.0346,0.21803 -1.31657,7.85856 -1.35969,8.47998 -0.0512,0.52328 -0.1225,0.84098 0.39782,1.01314 5.94014,1.78057 11.88855,6.00446 14.75104,10.03283 0.31128,0.44474 0.36782,0.54256 0.79617,0.48374 3.84369,-0.52638 6.91564,-0.50963 9.37719,-2.99581 -2.7387,-6.34343 -18.29989,-17.19249 -23.96253,-17.01393 z m -4.10621,2.94168 c -0.176,0.0787 -0.19148,0.35987 -0.21475,1.07562 l -0.19181,5.90545 c 0.0139,1.20844 0.52164,1.94004 1.94364,2.6463 6.45469,1.67244 10.36288,5.65775 14.60606,9.33873 1.1805,1.03023 2.22603,0.9794 3.32762,0.73934 l 8.11345,-1.5081 c 1.38024,-0.20917 1.31213,-0.48502 0.68246,-1.29295 -0.53939,-0.708 -1.75587,-0.31699 -2.68398,0.0505 -0.97759,0.38197 -4.89407,1.13383 -5.08763,1.15841 -0.19363,0.0246 -2.38052,0.0558 -2.76595,-0.005 -3.20764,-4.12918 -10.14139,-9.12981 -16.02662,-10.69737 -0.23391,-0.21898 -0.0925,-0.81305 -0.0925,-0.81305 0,0 0.39155,-2.7449 0.70353,-4.98912 0.28575,-1.3614 0.0577,-1.27385 -1.13445,-1.46948 -0.6665,-0.0935 -1.0031,-0.21746 -1.17911,-0.13878 z"
         id="path4757"
         inkscape:connector-curvature="0"
         inkscape:transform-center-x="-14.272009"
         inkscape:transform-center-y="-20.085092"
         sodipodi:nodetypes="ccccccccccccccccccccccccc" />
    </g>
    <path
       inkscape:transform-center-y="-0.35381479"
       inkscape:transform-center-x="0.2240314"
       d="m 155.44619,111.78539 c -0.15515,1.3473 1.69335,0.64588 1.20622,1.91158 -0.44317,1.1515 -1.25898,-0.69897 -2.04041,0.25588 -0.85892,1.04954 1.07535,1.45884 -0.0187,2.26026 -0.99537,0.7291 -0.68124,-1.26867 -1.85484,-0.88788 -1.29,0.41856 0.11592,1.80864 -1.23776,1.89132 -1.23154,0.0752 0.11281,-1.43557 -1.08037,-1.74972 -1.3115,-0.34531 -0.88029,1.58419 -2.06378,0.9219 -1.07671,-0.60254 0.87102,-1.1467 0.0371,-2.05606 -0.91662,-0.99955 -1.59704,0.85678 -2.23459,-0.34022 -0.58003,-1.089 1.35271,-0.49375 1.14281,-1.7096 -0.23072,-1.33643 -1.80673,-0.14265 -1.69592,-1.49432 0.10081,-1.22971 1.40491,0.31596 1.88567,-0.82036 0.52844,-1.24901 -1.44279,-1.09679 -0.61881,-2.17398 0.74964,-0.98 1.01107,1.02535 2.02985,0.32934 1.11982,-0.76504 -0.62078,-1.70271 0.65477,-2.16342 1.16046,-0.41915 0.29621,1.4092 1.52956,1.37448 1.35566,-0.0382 0.39832,-1.76804 1.72046,-1.466 1.20285,0.27479 -0.51268,1.34565 0.54365,1.98323 1.1611,0.70081 1.29096,-1.27202 2.23992,-0.30312 0.86334,0.88147 -1.1588,0.85485 -0.61486,1.96232 0.59788,1.21729 1.77372,-0.37215 2.04822,0.95599 0.24972,1.2083 -1.43702,0.0926 -1.57817,1.31838 z"
       inkscape:randomized="0"
       inkscape:rounded="0.6"
       inkscape:flatsided="false"
       sodipodi:arg2="0.40024773"
       sodipodi:arg1="0.081795034"
       sodipodi:r2="5.7702093"
       sodipodi:r1="4.1217132"
       sodipodi:cy="111.44863"
       sodipodi:cx="151.33825"
       sodipodi:sides="11"
       id="path4761"
       style="opacity:1;fill:#808080;fill-opacity:1;stroke:none;stroke-width:4.86499977;stroke-linecap:round;stroke-linejoin:round;stroke-miterlimit:4;stroke-dasharray:none;stroke-dashoffset:0;stroke-opacity:1"
       sodipodi:type="star" />
    <path
       style="opacity:1;fill:#808080;fill-opacity:1;stroke:none;stroke-width:0.66031337;stroke-linecap:round;stroke-linejoin:round;stroke-miterlimit:4;stroke-dasharray:none;stroke-dashoffset:0;stroke-opacity:1"
       d="m 532.88941,-2.1386887 c -0.46635,0.0077 -0.89976,0.04463 -1.28259,0.111104 v 5.17e-4 c -0.20421,0.03548 -0.39457,0.0794 -0.56743,0.131775 l -3.84574,1.16633702 c -3.04374,1.041716 -3.87218,5.82169098 -2.63136,7.85946898 7.16465,6.6325057 6.61186,6.1740917 8.5018,9.8443597 0.66829,1.297909 1.89987,1.934301 3.33468,1.665014 l 0.17931,-0.03411 2.98741,16.277042 c -0.45244,2.042176 -1.51255,4.698181 -3.19154,7.138066 h -5.94122 c -5.0864,0 -9.18136,4.094958 -9.18136,9.181351 v 16.874939 c 0,5.086395 4.09496,9.180835 9.18136,9.180835 h 26.08006 c 5.08638,0 9.18083,-4.09444 9.18083,-9.180835 V 51.202239 c 0,-5.086392 -4.09445,-9.18135 -9.18083,-9.18135 h -7.06522 c -2.24568,-2.38647 -4.43095,-4.85988 -5.94847,-8.298202 l -2.91298,-15.869315 1.81692,-0.341581 c 1.43483,-0.269018 1.95307,-1.903743 1.66399,-3.33468 L 541.56952,1.8119743 c -0.53147,-2.63127498 -5.41562,-4.004802 -8.68011,-3.950663 z m 11.30113,49.4894837 c 0.0697,-1.3e-4 0.14351,0.0021 0.22222,0.0078 2.51881,0.180184 -0.12785,2.681182 2.23808,3.563607 2.36596,0.882449 2.00465,-2.740562 4.02611,-1.227315 2.02158,1.513269 -1.55667,2.187054 -0.0434,4.208529 1.51329,2.021451 3.16799,-1.221827 4.0504,1.144116 0.88244,2.365918 -2.49211,0.997363 -2.31201,3.516064 0.18013,2.518701 3.32521,0.684856 2.78845,3.152262 -0.53676,2.467433 -2.63605,-0.50786 -3.84628,1.708422 -1.21012,2.216261 2.42737,2.373884 0.64183,4.159438 -1.78554,1.785528 -1.94215,-1.851956 -4.1584,-0.641821 -2.21629,1.210178 0.7585,3.309004 -1.70895,3.845759 -2.46739,0.536781 -0.63304,-2.608866 -3.15174,-2.788976 -2.5187,-0.180136 -1.15118,3.194476 -3.51708,2.312003 -2.36596,-0.882427 0.87839,-2.53661 -1.14311,-4.049882 -2.02146,-1.513125 -2.69578,2.064883 -4.20904,0.04341 -1.51326,-2.021475 2.11029,-1.659676 1.22785,-4.025593 -0.88246,-2.365944 -3.38402,0.280569 -3.56412,-2.238108 -0.18013,-2.518799 2.67234,-0.255426 3.2091,-2.722829 0.53674,-2.46743 -2.99767,-1.593848 -1.78749,-3.810104 1.21017,-2.216237 2.3863,1.229487 4.17184,-0.55604 1.78549,-1.785551 -1.66127,-2.961706 0.55499,-4.171839 2.21628,-1.210201 1.34265,2.324785 3.81011,1.788007 2.39019,-0.519957 0.34115,-3.212793 2.50063,-3.21686 z m -0.71779,5.666322 a 6.0828353,6.0828353 0 0 0 -6.08336,6.082832 6.0828353,6.0828353 0 0 0 6.08336,6.082834 6.0828353,6.0828353 0 0 0 6.08282,-6.082834 6.0828353,6.0828353 0 0 0 -6.08282,-6.082832 z"
       id="rect4769"
       inkscape:connector-curvature="0" />
  </g>
</svg>
